REM MD5 38d241e69b55b72c43c8e53e4d070765
FILE "Lunar - Silver Star Story Complete (USA) (Disc 2).bin" BINARY
  TRACK 01 MODE2/2352
    INDEX 01 00:00:00
  TRACK 02 AUDIO
    INDEX 00 65:30:64
    INDEX 01 65:32:64
  TRACK 03 AUDIO
    INDEX 00 68:01:36
    INDEX 01 68:03:36
REM LEADOUT 68:47:05
